# xmcd CD database file
#
# Track frame offsets:
#	150
#	6642
#	35147
#	41229
#	66517
#	78390
#	106943
#	127601
#	155494
#	192692
#	202450
#	223572
#	254466
#
# Disc length: 3474 seconds
#
# Revision: 0
# Processed by: cddbd v1.5.2PL0 Copyright (c) Steve Scherf et al.
# Submitted via: CDex 1.70beta2
#
DISCID=cb0d900d
DTITLE=Redman,Joshua - Momentum
DYEAR=2005
DGENRE=Jazz
TTITLE0=Soundcheck
TTITLE1=Sweet Nasty
TTITLE2=Just A Moment
TTITLE3=Shut Your Mouth
TTITLE4=The Crunge
TTITLE5=Riverwide
TTITLE6=Greasy G
TTITLE7=Lonely Woman
TTITLE8=Swumk
TTITLE9=Blowing Changes
TTITLE10=Double Jeopards
TTITLE11=Put It In Your Pocket
TTITLE12=Showtime
EXTD=YEAR: 2005
EXTT0=
EXTT1=
EXTT2=
EXTT3=
EXTT4=
EXTT5=
EXTT6=
EXTT7=
EXTT8=
EXTT9=
EXTT10=
EXTT11=
EXTT12=
PLAYORDER=
